#!OML:ASF F:\VICON\USERDATA\INSTALL\rory3\rory3.ASF
:FULLY-SPECIFIED
:DEGREES
228
root 0.170493 15.0186 -11.6057 99.288 17.1458 -400.01
lowerback 11.4232 -2.11151 -8.92674
upperback -2.86634 -4.76101 -6.34634
thorax -9.40847 -1.97785 -0.927883
lowerneck -34.2968 2.87666 0.0637791
upperneck 4.01338 2.47077 11.5101
head 6.31638 2.50982 4.30527
rclavicle 1.145e-013 -6.04305e-014
rhumerus 14.1767 -29.9042 31.7048
rradius 28.3829
rwrist 0.94277
rhand -28.7393 -69.6312
rfingers 7.12502
rthumb -2.09992 99.6006
lclavicle 1.145e-013 -6.04305e-014
lhumerus 49.1759 25.6864 21.9427
lradius 24.9132
lwrist 30.504
lhand -51.2998 271.932
lfingers 7.12502
lthumb -23.8361 -59.5268
rfemur -33.0181 -4.70777 45.9834
rtibia 56.0078
rfoot -11.2267 -29.5027
rtoes -3.94203
lfemur -102.857 29.9882 13.5977
ltibia 54.7803
lfoot -35.2294 28.2636
ltoes -0.974058
229
root 0.132658 14.9942 -11.7844 98.4398 16.149 -399.213
lowerback 12.1182 -2.35992 -9.08114
upperback -2.39789 -5.14078 -6.34875
thorax -9.26414 -2.15476 -0.746789
lowerneck -34.7496 2.49852 -1.0871
upperneck 5.0578 2.0013 13.9744
head 6.7846 2.56043 5.33334
rclavicle 6.67916e-014 -1.90833e-014
rhumerus 12.7842 -30.8869 30.0468
rradius 28.6264
rwrist 0.505362
rhand -28.0224 -68.5655
rfingers 7.12502
rthumb -1.40758 98.5406
lclavicle 6.67916e-014 -1.90833e-014
lhumerus 48.8182 26.1925 21.1829
lradius 24.8415
lwrist 31.4628
lhand -51.9163 274.938
lfingers 7.12502
lthumb -24.4273 -56.5996
rfemur -33.8877 -5.94513 47.8177
rtibia 54.7224
rfoot -10.8841 -28.7326
rtoes -11.0372
lfemur -104.677 29.245 11.5689
ltibia 56.536
lfoot -35.4362 26.9252
ltoes 1.19999
230
root 0.0958129 14.976 -11.9572 97.4689 15.3981 -398.5
lowerback 13.1267 -2.72051 -8.7937
upperback -2.13444 -5.68986 -6.51353
thorax -9.57746 -2.42163 -0.929647
lowerneck -33.1539 3.03695 0.327734
upperneck 4.00815 2.35158 13.5711
head 6.20597 2.62603 4.92118
rclavicle 8.90555e-014 6.36111e-015
rhumerus 11.9156 -32.0606 27.3937
rradius 28.945
rwrist 0.672239
rhand -27.0792 -67.4731
rfingers 7.12502
rthumb -0.496565 97.4523
lclavicle 8.90555e-014 6.36111e-015
lhumerus 48.1267 26.1266 19.2676
lradius 24.5395
lwrist 33.0899
lhand -52.1188 280.503
lfingers 7.12502
lthumb -24.6213 -51.0609
rfemur -34.4015 -6.99278 49.7483
rtibia 53.0924
rfoot -9.74736 -27.2578
rtoes -9.75734
lfemur -106.111 28.5389 9.88274
ltibia 57.9625
lfoot -35.5769 25.8608
ltoes 1.19297
231
root 0.0630515 14.9707 -12.123 96.5797 14.6203 -397.962
lowerback 13.9735 -2.87797 -8.45834
upperback -1.83886 -5.92699 -6.63049
thorax -9.77586 -2.54759 -1.14987
lowerneck -31.8998 3.18759 0.93275
upperneck 3.00578 2.49213 13.4528
head 5.70449 2.60639 4.72575
rclavicle 1.90833e-013 7.63333e-014
rhumerus 10.3571 -32.6333 25.6604
rradius 29.3855
rwrist 0.188515
rhand -26.8419 -66.9056
rfingers 7.12502
rthumb -0.267411 96.8852
lclavicle 1.90833e-013 7.63333e-014
lhumerus 47.0908 25.5501 16.8009
lradius 24.2554
lwrist 35.4911
lhand -52.5188 284.564
lfingers 7.12502
lthumb -25.0047 -47.0529
rfemur -35.1439 -8.52779 51.7282
rtibia 51.503
rfoot -7.94163 -25.6703
rtoes -14.4077
lfemur -107.268 27.9731 8.13896
ltibia 59.0124
lfoot -35.4171 25.1661
ltoes 0.893366
232
root 0.0333832 14.9767 -12.2823 95.8398 13.578 -397.701
lowerback 14.4995 -3.02294 -8.45706
upperback -1.65103 -6.15244 -6.5577
thorax -9.85394 -2.64693 -0.996866
lowerneck -30.5362 2.70828 -0.345248
upperneck 1.6082 2.41103 14.9252
head 5.08078 2.56323 5.32803
rclavicle -1.33583e-013 3.81667e-014
rhumerus 8.98547 -32.1779 24.4544
rradius 29.951
rwrist -1.6961
rhand -28.1039 -66.7451
rfingers 7.12502
rthumb -1.4863 96.7197
lclavicle -1.33583e-013 3.81667e-014
lhumerus 44.6168 24.6375 13.9233
lradius 24.3194
lwrist 37.9669
lhand -53.0524 286.262
lfingers 7.12502
lthumb -25.516 -45.4263
rfemur -35.8334 -9.25696 53.0679
rtibia 49.9259
rfoot -7.5526 -23.6469
rtoes -12.8562
lfemur -108.213 27.6189 6.32965
ltibia 59.8827
lfoot -35.2057 24.6395
ltoes 0.393392
233
root 0.00859027 14.9987 -12.4211 95.214 12.5105 -397.664
lowerback 14.8846 -3.08105 -8.4682
upperback -1.56221 -6.26009 -6.4645
thorax -9.96058 -2.68908 -0.84533
lowerneck -30.8288 3.13867 0.819556
upperneck 2.6857 2.60017 12.7923
head 5.4407 2.5349 4.48237
rclavicle -1.145e-013 -8.5875e-014
rhumerus 7.76822 -31.7024 23.28
rradius 30.2279
rwrist -2.31471
rhand -29.0833 -66.1394
rfingers 7.12502
rthumb -2.43213 96.1053
lclavicle -1.145e-013 -8.5875e-014
lhumerus 41.8161 23.38 11.0707
lradius 24.6605
lwrist 40.3703
lhand -53.7194 288.77
lfingers 7.12502
lthumb -26.1547 -43.0114
rfemur -36.7486 -9.87762 54.4377
rtibia 48.7204
rfoot -6.31367 -22.3315
rtoes -16.8019
lfemur -108.686 27.3964 5.06574
ltibia 60.5632
lfoot -35.0572 24.4838
ltoes 0.181415
234
root -0.00933201 15.0273 -12.5611 94.6355 11.4989 -397.75
lowerback 15.224 -3.09777 -8.22973
upperback -1.52909 -6.28517 -6.484
thorax -10.1462 -2.70881 -0.97218
lowerneck -30.9456 3.17631 0.9024
upperneck 3.49575 2.5392 12.5087
head 5.72424 2.51041 4.3911
rclavicle 3.81667e-014 -1.90833e-014
rhumerus 6.62895 -31.9546 21.8085
rradius 30.2312
rwrist -0.669372
rhand -29.0354 -66.0271
rfingers 7.12502
rthumb -2.38588 95.9935
lclavicle 3.81667e-014 -1.90833e-014
lhumerus 39.1799 21.5987 7.80566
lradius 24.9199
lwrist 43.0924
lhand -53.869 293.213
lfingers 7.12502
lthumb -26.298 -38.5898
rfemur -37.6038 -10.0854 55.5886
rtibia 47.7095
rfoot -6.52809 -20.5952
rtoes -16.9686
lfemur -108.892 27.2463 4.3146
ltibia 61.1443
lfoot -34.8939 24.5255
ltoes 0.341981
235
root -0.0219014 15.066 -12.7006 94.0631 9.99172 -397.984
lowerback 15.5316 -3.07575 -8.42573
upperback -1.49716 -6.36342 -6.74639
thorax -10.3023 -2.73794 -1.11716
lowerneck -30.5977 3.08405 0.66119
upperneck 3.57125 2.42381 13.2263
head 5.71527 2.50248 4.64743
rclavicle 6.36111e-015 -3.49861e-014
rhumerus 5.35859 -32.0132 20.3513
rradius 30.3189
rwrist 0.986177
rhand -29.0548 -66.8183
rfingers 7.12502
rthumb -2.40459 96.7845
lclavicle 6.36111e-015 -3.49861e-014
lhumerus 36.7803 19.3152 4.00193
lradius 24.75
lwrist 45.8986
lhand -53.0668 298.863
lfingers 7.12502
lthumb -25.5297 -32.8275
rfemur -38.389 -9.74285 55.9372
rtibia 46.9774
rfoot -7.25371 -19.3711
rtoes -14.4819
lfemur -108.935 27.1486 3.20813
ltibia 61.6192
lfoot -34.6546 24.5955
ltoes 0.147397
236
root -0.031905 15.1167 -12.824 93.2456 8.11747 -398.348
lowerback 16.1146 -2.90386 -9.12197
upperback -1.40297 -6.37662 -7.05384
thorax -10.506 -2.7053 -1.04082
lowerneck -29.8783 3.14758 1.02829
upperneck 3.00431 2.4717 13.1229
head 5.43255 2.46998 4.51846
rclavicle -4.45278e-014 -2.22639e-014
rhumerus 4.1781 -32.0877 19.0382
rradius 30.1387
rwrist 2.9083
rhand -29.1482 -66.9726
rfingers 7.12502
rthumb -2.49479 96.9377
lclavicle -4.45278e-014 -2.22639e-014
lhumerus 34.3821 16.9328 0.607138
lradius 24.7711
lwrist 48.1999
lhand -53.195 303.768
lfingers 7.12502
lthumb -25.6525 -27.9403
rfemur -38.8517 -9.2198 55.6695
rtibia 46.3734
rfoot -6.64176 -19.5749
rtoes -14.3752
lfemur -108.442 27.0313 2.02605
ltibia 61.9971
lfoot -34.493 24.7044
ltoes -0.0204247
237
root -0.0423771 15.1637 -12.949 92.4513 6.45428 -398.7
lowerback 16.628 -2.68855 -9.57318
upperback -1.29032 -6.27628 -7.3016
thorax -10.6694 -2.63515 -1.06585
lowerneck -29.1502 3.22005 1.6589
upperneck 2.41902 2.48802 12.5534
head 5.14432 2.38249 4.18909
rclavicle -1.52667e-013 2.38542e-014
rhumerus 2.92891 -32.0443 17.8657
rradius 29.8218
rwrist 4.92078
rhand -28.2245 -67.8153
rfingers 7.12502
rthumb -1.60275 97.789
lclavicle -1.52667e-013 2.38542e-014
lhumerus 31.9717 14.234 -2.45925
lradius 25.0915
lwrist 50.0243
lhand -53.3602 308.834
lfingers 7.12502
lthumb -25.8107 -22.8966
rfemur -39.1667 -8.53797 55.4291
rtibia 45.851
rfoot -6.11269 -20.0005
rtoes -16.0118
lfemur -107.761 26.9654 1.18791
ltibia 62.2832
lfoot -34.3041 24.8638
ltoes -0.240318
238
root -0.0545142 15.2037 -13.1031 92.1517 4.86751 -399.01
lowerback 16.5206 -2.50856 -9.79656
upperback -1.25606 -6.10132 -7.54166
thorax -10.5866 -2.55771 -1.25591
lowerneck -29.1261 3.05513 1.39702
upperneck 2.54071 2.2824 13.0603
head 5.19679 2.31896 4.37699
rclavicle 8.5875e-014 1.11319e-014
rhumerus 1.17524 -30.7359 17.2546
rradius 29.9264
rwrist 5.4824
rhand -28.7343 -65.1512
rfingers 7.12502
rthumb -2.09514 95.1207
lclavicle 8.5875e-014 1.11319e-014
lhumerus 29.5206 11.2173 -5.11
lradius 25.8799
lwrist 51.4185
lhand -52.0856 312.424
lfingers 7.12502
lthumb -24.5896 -19.1349
rfemur -39.6948 -7.07067 54.8404
rtibia 45.4041
rfoot -8.92954 -19.7072
rtoes -7.45076
lfemur -107.474 27.014 0.493998
ltibia 62.4546
lfoot -33.8006 25.2225
ltoes -2.40394
239
root -0.0810507 15.2595 -13.2365 91.7793 3.49048 -399.647
lowerback 16.4614 -2.12319 -10.3871
upperback -1.26677 -5.70918 -7.52477
thorax -10.5268 -2.34594 -1.01206
lowerneck -29.2275 2.84744 0.879855
upperneck 2.90461 2.03751 13.9198
head 5.35189 2.27745 4.73049
rclavicle -1.36764e-013 1.145e-013
rhumerus -0.343221 -29.8856 16.5788
rradius 30.1335
rwrist 5.91841
rhand -28.2709 -67.4998
rfingers 7.12502
rthumb -1.64755 97.4732
lclavicle -1.36764e-013 1.145e-013
lhumerus 26.9528 8.12907 -7.10759
lradius 27.3901
lwrist 52.975
lhand -51.2967 316.063
lfingers 7.12502
lthumb -23.8332 -15.3956
rfemur -40.041 -5.92071 54.8103
rtibia 44.9106
rfoot -7.56423 -20.178
rtoes -8.70114
lfemur -106.801 27.4748 0.340686
ltibia 62.5976
lfoot -33.2139 25.6152
ltoes -3.71883
240
root -0.0680199 15.2931 -13.3445 91.6237 2.53435 -399.125
lowerback 16.7465 -2.27008 -9.73541
upperback -1.31797 -5.81662 -7.41659
thorax -10.7906 -2.42022 -1.20969
lowerneck -28.9292 2.67411 0.658992
upperneck 3.1546 1.77368 14.6175
head 5.42071 2.19548 4.96465
rclavicle -6.36111e-015 5.88403e-014
rhumerus -1.41524 -29.824 15.6279
rradius 30.2589
rwrist 6.32514
rhand -28.5588 -68.1991
rfingers 7.12502
rthumb -1.92557 98.1701
lclavicle -6.36111e-015 5.88403e-014
lhumerus 24.4209 4.49981 -8.78741
lradius 29.3149
lwrist 55.762
lhand -50.973 320.808
lfingers 7.12502
lthumb -23.5227 -10.61
rfemur -41.2336 -6.19847 55.1656
rtibia 44.5075
rfoot -5.63688 -19.9126
rtoes -12.1316
lfemur -106.376 26.4 1.08067
ltibia 62.6111
lfoot -32.6152 26.5459
ltoes -3.87483
241
root -0.069772 15.3472 -13.4238 90.8297 1.08955 -398.758
lowerback 17.4137 -2.20253 -9.75479
upperback -1.19949 -5.81924 -7.41116
thorax -11.0403 -2.41005 -1.16434
lowerneck -28.83 2.46335 0.251327
upperneck 3.4582 1.50333 15.3485
head 5.53664 2.12064 5.24911
rclavicle -2.22639e-014 -3.49861e-014
rhumerus -2.51405 -29.7888 14.6528
rradius 30.4608
rwrist 6.67787
rhand -29.6068 -66.225
rfingers 7.12502
rthumb -2.93773 96.1845
lclavicle -2.22639e-014 -3.49861e-014
lhumerus 22.7086 2.58997 -8.58843
lradius 30.3016
lwrist 57.1075
lhand -50.0135 325.203
lfingers 7.12502
lthumb -22.602 -6.09997
rfemur -41.6157 -6.71291 54.7302
rtibia 44.0588
rfoot -4.97006 -19.1652
rtoes -12.058
lfemur -105.138 25.2933 1.4949
ltibia 62.5955
lfoot -32.4077 27.1236
ltoes -2.82195
242
root -0.0909079 15.4144 -13.5456 90.9761 -0.58654 -398.918
lowerback 16.6999 -1.9845 -10.2463
upperback -1.3037 -5.54318 -7.39786
thorax -10.7136 -2.27051 -0.977986
lowerneck -28.7884 2.196 -0.117751
upperneck 3.7117 1.17912 15.7249
head 5.64582 1.98946 5.40209
rclavicle 3.49861e-014 4.77083e-015
rhumerus -3.73225 -29.9504 13.8075
rradius 30.7556
rwrist 7.44236
rhand -30.0468 -65.5863
rfingers 7.12502
rthumb -3.36267 95.5395
lclavicle 3.49861e-014 4.77083e-015
lhumerus 21.1207 1.43759 -7.55011
lradius 31.3242
lwrist 58.0332
lhand -49.0846 326.69
lfingers 7.12502
lthumb -21.7103 -4.50741
rfemur -42.6468 -6.04526 54.1341
rtibia 43.6727
rfoot -4.28066 -18.4666
rtoes -10.8756
lfemur -104.851 25.228 1.21826
ltibia 62.4751
lfoot -32.0592 27.3133
ltoes -0.279117
